
<svg class="energy-scene__svg" viewBox="0 0 1200 320" preserveAspectRatio="xMidYMid slice" fill="none" xmlns="http://www.w3.org/2000/svg" aria-hidden="true">
  <g class="en3-enter en3-enter--sky">
    <rect width="1200" height="320" fill="url(#en3Sky)"/>
    <circle class="en3-moon" cx="600" cy="52" r="30" fill="url(#en3Moon)" stroke="#1e293b" stroke-width="2.5"/>
    <circle class="en3-star" cx="480" cy="36" r="2" fill="#fff"/>
    <circle class="en3-star en3-star--2" cx="540" cy="24" r="1.5" fill="#fde68a"/>
    <circle class="en3-star en3-star--3" cx="660" cy="40" r="1.8" fill="#ecfdf5"/>
    <circle class="en3-star en3-star--4" cx="720" cy="28" r="1.4" fill="#fff"/>
  </g>

  <g class="en3-enter en3-enter--forest">
    <path d="M80 200 L200 130 L320 155 L440 115 L560 140 L680 118 L800 138 L920 120 L1040 145 L1120 125 L1200 140 L1200 320 L80 320 Z" fill="#0f2744" opacity="0.9"/>
    <g class="en3-pine en3-pine--l1" fill="#134e4a" stroke="#052e16" stroke-width="2" stroke-linejoin="round">
      <path d="M40 250 L58 165 L76 250 Z"/><path d="M100 250 L118 140 L136 250 Z"/><path d="M160 250 L178 175 L196 250 Z"/>
      <rect x="52" y="250" width="8" height="18" rx="1" fill="#1a1208"/><rect x="112" y="250" width="8" height="18" rx="1" fill="#1a1208"/>
    </g>
    <g class="en3-pine en3-pine--r1" fill="#134e4a" stroke="#052e16" stroke-width="2" stroke-linejoin="round">
      <path d="M1004 250 L1022 155 L1040 250 Z"/><path d="M1064 250 L1082 135 L1100 250 Z"/><path d="M1124 250 L1142 168 L1160 250 Z"/>
      <rect x="1016" y="250" width="8" height="18" rx="1" fill="#1a1208"/><rect x="1076" y="250" width="8" height="18" rx="1" fill="#1a1208"/>
    </g>
    <g class="en3-pine en3-pine--c1" fill="#166534" stroke="#052e16" stroke-width="2">
      <path d="M520 210 L538 145 L556 210 Z"/><path d="M640 210 L658 130 L676 210 Z"/><path d="M760 210 L778 150 L796 210 Z"/>
    </g>
  </g>

  <g class="en3-enter en3-enter--tent">
    <path d="M0 255 L600 28 L1200 255 L1120 255 L600 58 L80 255 Z" fill="url(#en3TentWall)" stroke="#1e293b" stroke-width="3" stroke-linejoin="round"/>
    <path d="M80 255 L600 58 L1120 255 L600 72 Z" fill="url(#en3TentRoof)" opacity="0.35"/>
    <path d="M200 255 L600 95 L1000 255 L600 110 Z" fill="url(#en3Opening)" opacity="0.55"/>
    <path d="M0 255 L1200 255 L1200 320 L0 320 Z" fill="url(#en3Floor)"/>
    <ellipse cx="600" cy="302" rx="540" ry="14" fill="#052e16" opacity="0.45"/>
  </g>

  <g class="en3-enter en3-enter--light">
    <g class="en3-lantern">
      <ellipse cx="600" cy="118" rx="50" ry="28" fill="url(#en3LanternGlow)"/>
      <rect x="582" y="108" width="36" height="40" rx="5" fill="#374151" stroke="#1e293b" stroke-width="2"/>
      <rect x="590" y="116" width="20" height="24" rx="3" fill="#fde68a" stroke="#1e293b" stroke-width="1.5"/>
    </g>
    <path d="M350 255 L600 118 L850 255 Z" fill="url(#en3Warm)" opacity="0.2"/>
  </g>

  <g class="en3-station-wrap en3-enter en3-enter--station">
    <ellipse class="en3-station-glow" cx="600" cy="228" rx="95" ry="32" fill="url(#en3StationGlow)"/>
    <g class="en3-station">
      <rect x="518" y="200" width="164" height="52" rx="12" fill="#0f172a" stroke="#34d399" stroke-width="2.5"/>
      <rect x="530" y="212" width="140" height="28" rx="6" fill="#020617"/>
      <rect class="en3-battery-fill" x="536" y="218" width="128" height="10" rx="3" fill="url(#en3Battery)"/>
      <text class="en3-battery-text" x="600" y="236" text-anchor="middle" fill="#deff9a" font-size="11" font-weight="800" font-family="Inter,sans-serif">87%</text>
      <circle class="en3-led en3-led--1" cx="542" cy="206" r="3" fill="#34d399"/>
      <circle class="en3-led en3-led--2" cx="572" cy="206" r="3" fill="#6ee7b7"/>
      <circle class="en3-led en3-led--3" cx="628" cy="206" r="3" fill="#6ee7b7"/>
      <circle class="en3-led en3-led--4" cx="658" cy="206" r="3" fill="#a7f3d0"/>
      <rect x="548" y="248" width="18" height="8" rx="2" fill="#1e293b" stroke="#64748b" stroke-width="1"/>
      <rect x="576" y="248" width="18" height="8" rx="2" fill="#1e293b" stroke="#64748b" stroke-width="1"/>
      <rect x="604" y="248" width="18" height="8" rx="2" fill="#1e293b" stroke="#64748b" stroke-width="1"/>
      <rect x="632" y="248" width="18" height="8" rx="2" fill="#1e293b" stroke="#64748b" stroke-width="1"/>
    </g>
  </g>

  <g class="en3-cables" stroke-linecap="round" fill="none">
    <path class="en3-cable" d="M548 230 Q380 238 220 252" stroke="url(#en3Wire)" stroke-width="2.5"/>
    <path class="en3-cable" d="M560 232 Q420 240 340 248" stroke="url(#en3Wire)" stroke-width="2"/>
    <path class="en3-cable" d="M640 232 Q760 240 860 248" stroke="url(#en3Wire)" stroke-width="2"/>
    <path class="en3-cable" d="M652 228 Q820 236 980 250" stroke="url(#en3Wire)" stroke-width="2.5"/>
    <path class="en3-cable" d="M600 252 L600 268" stroke="url(#en3Wire)" stroke-width="2"/>
    <path class="en3-cable" d="M572 252 Q500 260 460 268" stroke="url(#en3Wire)" stroke-width="1.8"/>
    <path class="en3-cable" d="M628 252 Q700 260 740 268" stroke="url(#en3Wire)" stroke-width="1.8"/>
  </g>

  <g class="en3-flow en3-flow--1"><circle cx="0" cy="0" r="4" fill="#6ee7b7"/></g>
  <g class="en3-flow en3-flow--2"><circle cx="0" cy="0" r="3.5" fill="#34d399"/></g>
  <g class="en3-flow en3-flow--3"><circle cx="0" cy="0" r="3.5" fill="#a7f3d0"/></g>
  <g class="en3-flow en3-flow--4"><circle cx="0" cy="0" r="4" fill="#6ee7b7"/></g>
  <g class="en3-flow en3-flow--5"><circle cx="0" cy="0" r="3" fill="#34d399"/></g>
  <g class="en3-flow en3-flow--6"><circle cx="0" cy="0" r="3" fill="#deff9a"/></g>

  <!-- Padre + portátil -->
  <g class="en3-member en3-member--1 en3-enter en3-enter--m1">
    <ellipse cx="200" cy="278" rx="36" ry="8" fill="#000" opacity="0.3"/>
    <path d="M172 272 L188 292 L212 292 L228 272" fill="#1e3a8a" stroke="#1e293b" stroke-width="2"/>
    <path d="M180 248 L220 248 L214 272 Q200 278 186 272 Z" fill="#2563eb" stroke="#1e293b" stroke-width="2.5"/>
    <circle cx="200" cy="228" r="20" fill="#fcd9b6" stroke="#1e293b" stroke-width="2.5"/>
    <path d="M182 214 Q200 198 218 214" fill="#3f2a1d" stroke="#1e293b" stroke-width="2"/>
    <g class="en3-device-laptop">
      <rect x="155" y="248" width="52" height="34" rx="4" fill="#1e293b" stroke="#64748b" stroke-width="2"/>
      <rect class="en3-screen" x="160" y="252" width="42" height="26" rx="2" fill="url(#en3Screen)"/>
      <rect x="175" y="282" width="12" height="4" rx="1" fill="#475569"/>
    </g>
  </g>

  <!-- Madre + tablet -->
  <g class="en3-member en3-member--2 en3-enter en3-enter--m2">
    <ellipse cx="340" cy="280" rx="32" ry="7" fill="#000" opacity="0.28"/>
    <path d="M318 274 L330 292 L350 292 L362 274" fill="#9d174d" stroke="#1e293b" stroke-width="2"/>
    <path d="M322 252 L358 252 L354 274 Q340 280 326 274 Z" fill="#a855f7" stroke="#1e293b" stroke-width="2.5"/>
    <circle cx="340" cy="232" r="18" fill="#fcd9b6" stroke="#1e293b" stroke-width="2.5"/>
    <path d="M324 218 Q340 206 356 218" fill="#4a3728" stroke="#1e293b" stroke-width="1.5"/>
    <ellipse cx="332" cy="228" rx="8" ry="10" fill="#6b4423" stroke="#1e293b" stroke-width="1.5"/>
    <rect class="en3-device en3-screen" x="308" y="256" width="22" height="28" rx="3" fill="#1e293b" stroke="#64748b" stroke-width="1.5"/>
    <rect x="312" y="260" width="14" height="20" rx="2" fill="url(#en3Screen)"/>
  </g>

  <!-- Niña + tablet -->
  <g class="en3-member en3-member--3 en3-enter en3-enter--m3">
    <ellipse cx="460" cy="282" rx="28" ry="6" fill="#000" opacity="0.25"/>
    <path d="M442 276 L452 294 L468 294 L478 276" fill="#9d174d" stroke="#1e293b" stroke-width="2"/>
    <path d="M444 258 L476 258 L472 276 Q460 282 448 276 Z" fill="#f472b6" stroke="#1e293b" stroke-width="2.5"/>
    <circle cx="460" cy="242" r="15" fill="#fcd9b6" stroke="#1e293b" stroke-width="2"/>
    <circle cx="472" cy="234" r="5" fill="#ec4899" stroke="#1e293b" stroke-width="1.5"/>
    <rect class="en3-device en3-screen en3-screen--2" x="448" y="262" width="18" height="24" rx="2" fill="#1e293b" stroke="#64748b" stroke-width="1.5"/>
    <rect x="451" y="265" width="12" height="17" rx="1.5" fill="url(#en3Screen)"/>
  </g>

  <!-- Niño + móvil -->
  <g class="en3-member en3-member--4 en3-enter en3-enter--m4">
    <ellipse cx="580" cy="284" rx="26" ry="6" fill="#000" opacity="0.25"/>
    <path d="M564 278 L574 296 L586 296 L596 278" fill="#166534" stroke="#1e293b" stroke-width="2"/>
    <path d="M566 260 L594 260 L590 278 Q580 284 570 278 Z" fill="#4ade80" stroke="#1e293b" stroke-width="2.5"/>
    <circle cx="580" cy="244" r="14" fill="#fcd9b6" stroke="#1e293b" stroke-width="2"/>
    <path d="M568 232 Q580 222 592 232" fill="#422006" stroke="#1e293b" stroke-width="1.5"/>
    <rect class="en3-device en3-screen en3-screen--3" x="568" y="266" width="12" height="20" rx="2" fill="#1e293b" stroke="#64748b" stroke-width="1.5"/>
    <rect x="570" y="269" width="8" height="14" rx="1" fill="url(#en3Screen)"/>
  </g>

  <!-- Adolescente + portátil pequeño -->
  <g class="en3-member en3-member--5 en3-enter en3-enter--m5">
    <ellipse cx="740" cy="280" rx="30" ry="7" fill="#000" opacity="0.28"/>
    <path d="M718 274 L730 292 L750 292 L762 274" fill="#1e293b" stroke="#1e293b" stroke-width="2"/>
    <path d="M722 252 L758 252 L754 274 Q740 280 726 274 Z" fill="#475569" stroke="#1e293b" stroke-width="2.5"/>
    <circle cx="740" cy="232" r="17" fill="#fcd9b6" stroke="#1e293b" stroke-width="2.5"/>
    <path d="M726 218 Q740 208 754 218" fill="#1a0f0a" stroke="#1e293b" stroke-width="1.5"/>
    <rect class="en3-device en3-screen en3-screen--4" x="712" y="254" width="36" height="24" rx="3" fill="#1e293b" stroke="#64748b" stroke-width="1.5"/>
    <rect x="716" y="257" width="28" height="18" rx="2" fill="url(#en3Screen)"/>
    <rect class="en3-device en3-screen en3-screen--5" x="752" y="268" width="10" height="16" rx="2" fill="#1e293b" stroke="#64748b" stroke-width="1"/>
    <rect x="754" y="270" width="6" height="12" rx="1" fill="url(#en3Screen)"/>
  </g>

  <!-- Abuela / 6º miembro + móvil -->
  <g class="en3-member en3-member--6 en3-enter en3-enter--m6">
    <ellipse cx="920" cy="282" rx="34" ry="7" fill="#000" opacity="0.28"/>
    <path d="M894 276 L908 296 L932 296 L946 276" fill="#78350f" stroke="#1e293b" stroke-width="2"/>
    <path d="M898 254 L942 254 L936 276 Q920 284 904 276 Z" fill="#d97706" stroke="#1e293b" stroke-width="2.5"/>
    <circle cx="920" cy="234" r="19" fill="#fcd9b6" stroke="#1e293b" stroke-width="2.5"/>
    <path d="M902 218 Q920 202 938 218" fill="#78716c" stroke="#1e293b" stroke-width="2"/>
    <ellipse cx="908" cy="226" rx="6" ry="8" fill="#a8a29e" stroke="#1e293b" stroke-width="1"/>
    <rect class="en3-device en3-screen en3-screen--6" x="902" y="260" width="12" height="20" rx="2" fill="#1e293b" stroke="#64748b" stroke-width="1.5"/>
    <rect x="904" y="263" width="8" height="14" rx="1" fill="url(#en3Screen)"/>
    <rect class="en3-device en3-screen en3-screen--7" x="928" y="264" width="14" height="18" rx="2" fill="#1e293b" stroke="#64748b" stroke-width="1.5"/>
    <rect x="930" y="267" width="10" height="12" rx="1" fill="url(#en3Screen)"/>
  </g>

  <defs>
    <linearGradient id="en3Sky" x1="600" y1="0" x2="600" y2="320" gradientUnits="userSpaceOnUse">
      <stop offset="0%" stop-color="#1e3a8a"/><stop offset="100%" stop-color="#0f172a"/>
    </linearGradient>
    <radialGradient id="en3Moon" cx="50%" cy="50%" r="50%">
      <stop offset="0%" stop-color="#fffbeb"/><stop offset="100%" stop-color="#fde047"/>
    </radialGradient>
    <linearGradient id="en3TentWall" x1="600" y1="28" x2="600" y2="255" gradientUnits="userSpaceOnUse">
      <stop offset="0%" stop-color="#22c55e"/><stop offset="100%" stop-color="#15803d"/>
    </linearGradient>
    <linearGradient id="en3TentRoof" x1="600" y1="58" x2="600" y2="255" gradientUnits="userSpaceOnUse">
      <stop offset="0%" stop-color="#4ade80"/><stop offset="100%" stop-color="#166534"/>
    </linearGradient>
    <radialGradient id="en3Opening" cx="50%" cy="40%" r="60%">
      <stop offset="0%" stop-color="#1e3a8a" stop-opacity="0.6"/><stop offset="100%" stop-color="#0f172a"/>
    </radialGradient>
    <linearGradient id="en3Floor" x1="600" y1="255" x2="600" y2="320" gradientUnits="userSpaceOnUse">
      <stop offset="0%" stop-color="#14532d"/><stop offset="100%" stop-color="#052e16"/>
    </linearGradient>
    <radialGradient id="en3LanternGlow" cx="50%" cy="50%" r="50%">
      <stop offset="0%" stop-color="rgba(254,243,199,0.65)"/><stop offset="100%" stop-color="rgba(251,191,36,0)"/>
    </radialGradient>
    <linearGradient id="en3Warm" x1="600" y1="118" x2="600" y2="255" gradientUnits="userSpaceOnUse">
      <stop offset="0%" stop-color="rgba(254,243,199,0.45)"/><stop offset="100%" stop-color="rgba(251,191,36,0.05)"/>
    </linearGradient>
    <radialGradient id="en3StationGlow" cx="50%" cy="50%" r="50%">
      <stop offset="0%" stop-color="rgba(52,211,153,0.5)"/><stop offset="100%" stop-color="transparent"/>
    </radialGradient>
    <linearGradient id="en3Battery" x1="0" y1="0" x2="1" y2="0">
      <stop offset="0%" stop-color="#059669"/><stop offset="55%" stop-color="#34d399"/><stop offset="100%" stop-color="#deff9a"/>
    </linearGradient>
    <linearGradient id="en3Screen" x1="0" y1="0" x2="1" y2="1">
      <stop offset="0%" stop-color="rgba(52,211,153,0.7)"/><stop offset="100%" stop-color="rgba(251,191,36,0.4)"/>
    </linearGradient>
    <linearGradient id="en3Wire" x1="0" y1="0" x2="1" y2="0">
      <stop offset="0%" stop-color="#34d399"/><stop offset="100%" stop-color="#6ee7b7"/>
    </linearGradient>
  </defs>
</svg>
