<svg class="il4-scene__svg" viewBox="0 0 1200 320" preserveAspectRatio="xMidYMid slice" fill="none" xmlns="http://www.w3.org/2000/svg" aria-hidden="true">
  <g class="il4-enter il4-enter--sky">
    <rect width="1200" height="320" fill="url(#il4Sky)"/>
    <rect width="1200" height="320" fill="url(#il4Vignette)" opacity="0.42"/>
    <circle class="il4-moon" cx="1010" cy="44" r="30" fill="url(#il4Moon)" stroke="#1e293b" stroke-width="1.5"/>
    <circle class="il4-star" cx="80" cy="36" r="2" fill="#ecfdf5"/>
    <circle class="il4-star il4-star--2" cx="220" cy="24" r="1.5" fill="#93c5fd"/>
    <circle class="il4-star il4-star--3" cx="420" cy="48" r="2" fill="#fff"/>
    <circle class="il4-star il4-star--4" cx="720" cy="28" r="1.6" fill="#fde68a"/>
    <circle class="il4-star il4-star--5" cx="900" cy="38" r="1.8" fill="#ecfdf5"/>
  </g>

  <g class="il4-enter il4-enter--forest">
    <path d="M0 178 L130 112 L270 142 L410 92 L560 122 L710 98 L870 118 L1030 88 L1200 104 L1200 320 L0 320 Z" fill="#0a1410" opacity="0.88"/>
    <path d="M0 250 Q350 236 700 244 T1200 252 L1200 320 L0 320 Z" fill="url(#il4Ground)"/>
    <ellipse cx="600" cy="294" rx="560" ry="18" fill="#07120e" opacity="0.62"/>
    <g class="il4-tree">
      <path d="M28 252 L46 178 L64 252 Z" fill="#0f2419" stroke="#052e16" stroke-width="1.2"/>
      <rect x="42" y="252" width="8" height="16" rx="1" fill="#1a1208"/>
    </g>
    <g class="il4-tree il4-tree--2">
      <path d="M1042 252 L1064 172 L1086 252 Z" fill="#0f2419" stroke="#052e16" stroke-width="1.2"/>
      <rect x="1058" y="252" width="10" height="18" rx="1" fill="#1a1208"/>
    </g>
  </g>

  <g class="il4-enter il4-enter--tent">
    <ellipse class="il4-tent-glow" cx="118" cy="208" rx="80" ry="46" fill="rgba(52,211,153,0.12)"/>
    <g class="il4-tent">
      <path d="M46 252 L118 112 L190 252 Z" fill="url(#il4Tent)" stroke="rgba(110,231,183,0.5)" stroke-width="2" stroke-linejoin="round"/>
      <line x1="46" y1="252" x2="24" y2="270" stroke="rgba(167,243,208,0.4)" stroke-width="1.2" stroke-linecap="round"/>
      <line x1="190" y1="252" x2="212" y2="270" stroke="rgba(167,243,208,0.4)" stroke-width="1.2" stroke-linecap="round"/>
      <line x1="118" y1="112" x2="118" y2="92" stroke="rgba(167,243,208,0.45)" stroke-width="1.5" stroke-linecap="round"/>
      <path d="M76 252 L118 142 L160 252 Z" fill="rgba(254,243,199,0.08)"/>
      <g class="il4-tent-silhouettes" opacity="0">
        <ellipse cx="100" cy="228" rx="7" ry="12" fill="#022c22" opacity="0.85"/>
        <ellipse cx="118" cy="226" rx="8" ry="13" fill="#022c22" opacity="0.9"/>
        <ellipse cx="136" cy="228" rx="7" ry="12" fill="#022c22" opacity="0.85"/>
        <ellipse cx="118" cy="210" rx="8" ry="11" fill="#022c22" opacity="0.95"/>
      </g>
    </g>
  </g>

  <g class="il4-enter il4-enter--cave">
    <path d="M472 252 L514 84 L558 68 L622 54 L700 48 L778 54 L842 68 L886 84 L928 252 Z" fill="url(#il4Rock)" stroke="#1e293b" stroke-width="2" stroke-linejoin="round"/>
    <path d="M498 252 L538 118 L578 96 L640 86 L702 96 L742 118 L782 252 Z" fill="#020403" opacity="0.96"/>
    <ellipse class="il4-cave-dark" cx="678" cy="176" rx="98" ry="74" fill="#010302"/>
    <ellipse class="il4-cave-lit" cx="678" cy="168" rx="88" ry="62" fill="url(#il4CaveLit)" opacity="0"/>
    <path d="M548 252 L592 128 L636 252 Z" fill="url(#il4CaveMouth)" opacity="0.55"/>
  </g>

  <g class="il4-monster">
    <g class="il4-monster-shadow" opacity="0.4">
      <ellipse cx="0" cy="18" rx="52" ry="16" fill="#000" opacity="0.5"/>
    </g>
    <g class="il4-monster-body">
      <ellipse cx="0" cy="-20" rx="48" ry="38" fill="#1a1208" stroke="#0f172a" stroke-width="2"/>
      <ellipse cx="0" cy="-58" rx="34" ry="32" fill="#1f2937" stroke="#0f172a" stroke-width="2"/>
      <path d="M-34 -52 L-48 -18 L-28 -8 Z" fill="#111827" stroke="#0f172a" stroke-width="1.5"/>
      <path d="M34 -52 L48 -18 L28 -8 Z" fill="#111827" stroke="#0f172a" stroke-width="1.5"/>
      <ellipse cx="-12" cy="-64" rx="10" ry="12" fill="#1f2937" stroke="#0f172a" stroke-width="1.5"/>
      <ellipse cx="12" cy="-64" rx="10" ry="12" fill="#1f2937" stroke="#0f172a" stroke-width="1.5"/>
      <ellipse class="il4-monster-eye" cx="-12" cy="-62" rx="5" ry="6" fill="#fef08a"/>
      <ellipse class="il4-monster-eye" cx="12" cy="-62" rx="5" ry="6" fill="#fef08a"/>
      <ellipse cx="-12" cy="-61" rx="2" ry="3" fill="#1e293b"/>
      <ellipse cx="12" cy="-61" rx="2" ry="3" fill="#1e293b"/>
      <path d="M-8 -48 L0 -42 L8 -48 L6 -44 L0 -38 L-6 -44 Z" fill="#374151"/>
      <path class="il4-monster-mouth" d="M-14 -44 Q0 -36 14 -44" stroke="#7f1d1d" stroke-width="2.5" fill="none" stroke-linecap="round"/>
    </g>
  </g>

  <g class="il4-shock" opacity="0">
    <text x="560" y="188" fill="#fef08a" font-size="22" font-weight="900" font-family="system-ui,sans-serif">!</text>
    <text x="578" y="172" fill="#fef08a" font-size="18" font-weight="900" font-family="system-ui,sans-serif">!</text>
    <text x="594" y="190" fill="#fef08a" font-size="20" font-weight="900" font-family="system-ui,sans-serif">!</text>
  </g>

  <g class="il4-enter il4-enter--family">
    <g class="il4-family">
      <g class="il4-family-bob">
        <g class="il4-member il4-member--daughter" transform="translate(-108, 0)">
          <ellipse cx="0" cy="252" rx="10" ry="4" fill="#0a1410" opacity="0.5"/>
          <line class="il4-leg il4-leg--l" x1="-4" y1="252" x2="-5" y2="268" stroke="#9d174d" stroke-width="2.8" stroke-linecap="round"/>
          <line class="il4-leg il4-leg--r" x1="4" y1="252" x2="5" y2="268" stroke="#9d174d" stroke-width="2.8" stroke-linecap="round"/>
          <path d="M-9 240 Q0 252 9 240 L9 258 Q0 266 -9 258 Z" fill="#be185d" stroke="#1e293b" stroke-width="1.2"/>
          <g transform="translate(-9, 240)">
            <g class="il4-arm-swing--l">
              <path d="M0 0 L-5 13" stroke="#fcd9b8" stroke-width="3" stroke-linecap="round" stroke-linejoin="round"/>
            </g>
          </g>
          <g transform="translate(9, 240)">
            <g class="il4-arm-swing--r">
              <path d="M0 0 L5 13" stroke="#fcd9b8" stroke-width="3" stroke-linecap="round" stroke-linejoin="round"/>
            </g>
          </g>
          <rect x="-3.5" y="236" width="7" height="6" rx="2" fill="#fcd9b8"/>
          <circle cx="0" cy="226" r="8.5" fill="#fcd9b8" stroke="#1e293b" stroke-width="1.6"/>
          <path d="M-8.5 224 Q0 214 8.5 224 L7.5 227 Q0 223 -7.5 227 Z" fill="#6b4423" stroke="#1e293b" stroke-width="1"/>
          <ellipse cx="-2.5" cy="226" rx="1.3" ry="1.6" fill="#1e293b"/>
          <ellipse cx="2.5" cy="226" rx="1.3" ry="1.6" fill="#1e293b"/>
        </g>

        <g class="il4-member il4-member--son" transform="translate(-76, 0)">
          <ellipse cx="0" cy="252" rx="11" ry="4" fill="#0a1410" opacity="0.5"/>
          <line class="il4-leg il4-leg--l" x1="-4" y1="252" x2="-6" y2="268" stroke="#1e40af" stroke-width="3" stroke-linecap="round"/>
          <line class="il4-leg il4-leg--r" x1="4" y1="252" x2="6" y2="268" stroke="#1e40af" stroke-width="3" stroke-linecap="round"/>
          <path d="M-11 238 Q0 252 11 238 L11 260 Q0 268 -11 260 Z" fill="#1d4ed8" stroke="#1e293b" stroke-width="1.2"/>
          <g transform="translate(-11, 238)">
            <g class="il4-arm-swing--l">
              <path d="M0 0 L-5 14" stroke="#fcd9b8" stroke-width="3.2" stroke-linecap="round" stroke-linejoin="round"/>
            </g>
          </g>
          <g transform="translate(11, 238)">
            <g class="il4-arm-swing--r">
              <path d="M0 0 L5 14" stroke="#fcd9b8" stroke-width="3.2" stroke-linecap="round" stroke-linejoin="round"/>
            </g>
          </g>
          <rect x="-3.5" y="232" width="7" height="6" rx="2" fill="#fcd9b8"/>
          <circle cx="0" cy="222" r="9" fill="#fcd9b8" stroke="#1e293b" stroke-width="1.6"/>
          <path d="M-9.5 220 Q0 210 9.5 220 L8.5 223 Q0 220 -8.5 223 Z" fill="#3d2b1f" stroke="#1e293b" stroke-width="1"/>
          <ellipse cx="-3" cy="222" rx="1.4" ry="1.7" fill="#1e293b"/>
          <ellipse cx="3" cy="222" rx="1.4" ry="1.7" fill="#1e293b"/>
        </g>

        <g class="il4-member il4-member--mother" transform="translate(-40, 0)">
          <ellipse cx="0" cy="252" rx="12" ry="4" fill="#0a1410" opacity="0.5"/>
          <line class="il4-leg il4-leg--l" x1="-4" y1="252" x2="-5" y2="268" stroke="#7e22ce" stroke-width="3" stroke-linecap="round"/>
          <line class="il4-leg il4-leg--r" x1="4" y1="252" x2="5" y2="268" stroke="#7e22ce" stroke-width="3" stroke-linecap="round"/>
          <path d="M-12 238 Q0 252 12 238 L12 260 Q0 268 -12 260 Z" fill="#7e22ce" stroke="#1e293b" stroke-width="1.2"/>
          <g transform="translate(-12, 238)">
            <g class="il4-arm-swing--l">
              <path d="M0 0 L-4 14" stroke="#f5c9a8" stroke-width="3.2" stroke-linecap="round" stroke-linejoin="round"/>
            </g>
          </g>
          <g transform="translate(12, 238)">
            <g class="il4-arm-swing--r">
              <path d="M0 0 L4 14" stroke="#f5c9a8" stroke-width="3.2" stroke-linecap="round" stroke-linejoin="round"/>
            </g>
          </g>
          <rect x="-3.5" y="234" width="7" height="6" rx="2" fill="#f5c9a8"/>
          <circle cx="0" cy="224" r="9" fill="#f5c9a8" stroke="#1e293b" stroke-width="1.6"/>
          <path d="M-9.5 222 Q0 212 9.5 222 L8.5 225 Q0 222 -8.5 225 Z" fill="#5c4033" stroke="#1e293b" stroke-width="1"/>
          <ellipse cx="-3" cy="224" rx="1.4" ry="1.7" fill="#1e293b"/>
          <ellipse cx="3" cy="224" rx="1.4" ry="1.7" fill="#1e293b"/>
        </g>

        <g class="il4-member il4-member--father" transform="translate(0, 0)">
          <ellipse cx="0" cy="252" rx="13" ry="5" fill="#0a1410" opacity="0.55"/>
          <line class="il4-leg il4-leg--l" x1="-5" y1="252" x2="-7" y2="268" stroke="#047857" stroke-width="3" stroke-linecap="round"/>
          <line class="il4-leg il4-leg--r" x1="5" y1="252" x2="7" y2="268" stroke="#047857" stroke-width="3" stroke-linecap="round"/>
          <path d="M-13 236 Q0 252 13 236 L13 260 Q0 268 -13 260 Z" fill="url(#il4JacketDad)" stroke="#1e293b" stroke-width="1.2"/>
          <g transform="translate(-12, 236)">
            <g class="il4-arm-swing--l">
              <circle cx="0" cy="0" r="4.5" fill="#047857"/>
              <path d="M0 0 L-5 15" stroke="#fcd9b8" stroke-width="4" stroke-linecap="round" stroke-linejoin="round"/>
            </g>
          </g>
          <g transform="translate(12, 236)">
            <g class="il4-arm--lantern">
              <circle cx="0" cy="0" r="5" fill="#047857"/>
              <path d="M0 0 L1 7" stroke="#fcd9b8" stroke-width="5" stroke-linecap="round"/>
              <g transform="translate(1, 7)">
                <g class="il4-forearm">
                  <path d="M0 0 L4 11" stroke="#fcd9b8" stroke-width="4.5" stroke-linecap="round"/>
                  <g transform="translate(4, 11)">
                    <g class="il4-lantern">
                    <path d="M-3 6 L3 6 L2 10 L-2 10 Z" fill="#374151" stroke="#1e293b" stroke-width="1"/>
                    <rect x="-7" y="-8" width="14" height="15" rx="3" fill="#1f2937" stroke="rgba(251,191,36,0.7)" stroke-width="1.5"/>
                    <path d="M-5 -8 Q0 -12 5 -8" fill="none" stroke="#57534e" stroke-width="1.5" stroke-linecap="round"/>
                    <circle class="il4-lantern-bulb" cx="0" cy="-1" r="4.5" fill="url(#il4FlashBulb)"/>
                    <ellipse cx="0" cy="0" rx="2.8" ry="1.8" fill="#fef9c3"/>
                    <g class="il4-beam">
                      <path d="M7 -14 L210 -36 L210 22 L7 -2 Z" fill="url(#il4Beam)" opacity="0.9"/>
                      <path class="il4-beam-core" d="M7 -12 L165 -24 L165 16 L7 -4 Z" fill="url(#il4BeamCore)" opacity="0.8"/>
                    </g>
                    </g>
                  </g>
                </g>
              </g>
            </g>
          </g>
          <rect x="-4.5" y="232" width="9" height="7" rx="2" fill="#fcd9b8"/>
          <circle cx="0" cy="222" r="10" fill="#fcd9b8" stroke="#1e293b" stroke-width="1.6"/>
          <path d="M-10.5 220 Q0 208 10.5 220 L9.5 223 Q0 220 -9.5 223 Z" fill="#3d2b1f" stroke="#1e293b" stroke-width="1"/>
          <ellipse cx="-3.5" cy="222" rx="1.5" ry="1.8" fill="#1e293b"/>
          <ellipse cx="3.5" cy="222" rx="1.5" ry="1.8" fill="#1e293b"/>
        </g>
      </g>
    </g>
  </g>

  <defs>
    <linearGradient id="il4Sky" x1="600" y1="0" x2="600" y2="320" gradientUnits="userSpaceOnUse">
      <stop offset="0%" stop-color="#0f1c2e"/>
      <stop offset="100%" stop-color="#050a0f"/>
    </linearGradient>
    <radialGradient id="il4Vignette" cx="50%" cy="50%" r="62%">
      <stop offset="52%" stop-color="transparent"/>
      <stop offset="100%" stop-color="#020403" stop-opacity="0.75"/>
    </radialGradient>
    <radialGradient id="il4Moon" cx="48%" cy="42%" r="55%">
      <stop offset="0%" stop-color="#fef9c3"/>
      <stop offset="100%" stop-color="#fde68a" stop-opacity="0.45"/>
    </radialGradient>
    <linearGradient id="il4Ground" x1="600" y1="248" x2="600" y2="320" gradientUnits="userSpaceOnUse">
      <stop offset="0%" stop-color="#14532d"/>
      <stop offset="100%" stop-color="#052e16"/>
    </linearGradient>
    <linearGradient id="il4Tent" x1="118" y1="112" x2="118" y2="252" gradientUnits="userSpaceOnUse">
      <stop offset="0%" stop-color="#10b981"/>
      <stop offset="100%" stop-color="#064e3b"/>
    </linearGradient>
    <linearGradient id="il4Rock" x1="700" y1="48" x2="700" y2="252" gradientUnits="userSpaceOnUse">
      <stop offset="0%" stop-color="#3d4f63"/>
      <stop offset="100%" stop-color="#1e293b"/>
    </linearGradient>
    <radialGradient id="il4CaveMouth" cx="50%" cy="38%" r="68%">
      <stop offset="0%" stop-color="#0f172a"/>
      <stop offset="100%" stop-color="#020403"/>
    </radialGradient>
    <radialGradient id="il4CaveLit" cx="50%" cy="50%" r="50%">
      <stop offset="0%" stop-color="rgba(254,243,199,0.55)"/>
      <stop offset="70%" stop-color="rgba(251,191,36,0.18)"/>
      <stop offset="100%" stop-color="transparent"/>
    </radialGradient>
    <linearGradient id="il4Beam" x1="0" y1="0" x2="1" y2="0">
      <stop offset="0%" stop-color="rgba(254,243,199,0.95)"/>
      <stop offset="40%" stop-color="rgba(251,191,36,0.45)"/>
      <stop offset="100%" stop-color="rgba(251,191,36,0)"/>
    </linearGradient>
    <linearGradient id="il4BeamCore" x1="0" y1="0" x2="1" y2="0">
      <stop offset="0%" stop-color="rgba(255,255,255,0.75)"/>
      <stop offset="100%" stop-color="rgba(251,191,36,0)"/>
    </linearGradient>
    <radialGradient id="il4FlashBulb" cx="50%" cy="50%" r="50%">
      <stop offset="0%" stop-color="#fef9c3"/>
      <stop offset="100%" stop-color="#fbbf24"/>
    </radialGradient>
    <linearGradient id="il4JacketDad" x1="0" y1="236" x2="0" y2="268" gradientUnits="userSpaceOnUse">
      <stop offset="0%" stop-color="#047857"/>
      <stop offset="100%" stop-color="#064e3b"/>
    </linearGradient>
  </defs>
</svg>
